<mxfile host="app.diagrams.net" modified="2023-01-17T12:05:55.094Z" agent="5.0 (Windows NT 10.0; Win64; x64) AppleWebKit/537.36 (KHTML, like Gecko) Chrome/108.0.0.0 Safari/537.36" etag="JQ5btMPXQ67tmGPLz6No" version="20.8.5" type="github">
  <diagram id="8fwQue622_lrpJ2JNK0t" name="Page-1">
    <mxGraphModel dx="2284" dy="756" grid="1" gridSize="10" guides="1" tooltips="1" connect="1" arrows="1" fold="1" page="1" pageScale="1" pageWidth="850" pageHeight="1100" math="0" shadow="0">
      <root>
        <mxCell id="0" />
        <mxCell id="1" parent="0" />
        <mxCell id="SF89tTnGyxcnFl5orWCE-2" value="&lt;b&gt;PriorityList&lt;/b&gt;&lt;br&gt;-----------&lt;br&gt;C1&lt;br&gt;C2&lt;br&gt;C3" style="spacingLeft=10;spacingRight=10;shape=mxgraph.mockup.text.stickyNote2;zwfType=stickyShape;strokeWidth=0;strokeColor=#CAE33E;fillColor=#D8F636;whiteSpace=wrap;html=1;" parent="1" vertex="1">
          <mxGeometry x="60" y="70" width="110" height="100" as="geometry" />
        </mxCell>
        <mxCell id="SF89tTnGyxcnFl5orWCE-3" value="&lt;b&gt;Master Q&lt;/b&gt;&lt;br&gt;----------&lt;br&gt;C1_01_2023&lt;br&gt;C2_01_2023&lt;br&gt;C3_01_2023" style="spacingLeft=10;spacingRight=10;shape=mxgraph.mockup.text.stickyNote2;zwfType=stickyShape;strokeWidth=0;strokeColor=#CAE33E;fillColor=#D8F636;whiteSpace=wrap;html=1;" parent="1" vertex="1">
          <mxGeometry x="190" y="70" width="120" height="100" as="geometry" />
        </mxCell>
        <mxCell id="SF89tTnGyxcnFl5orWCE-4" value="&lt;b&gt;Sub Q&lt;/b&gt;&lt;br&gt;-------&lt;br&gt;C1_01_2023_MEDC_A1&lt;br&gt;C1_01_2023_MEDC_A2&lt;br&gt;C1_01_2023_OTC_A3&lt;br&gt;C2_01_2023_OTC_A1&lt;br&gt;C2_01_2023_MEDC_A2" style="spacingLeft=10;spacingRight=10;shape=mxgraph.mockup.text.stickyNote2;zwfType=stickyShape;strokeWidth=0;strokeColor=#CAE33E;fillColor=#D8F636;whiteSpace=wrap;html=1;" parent="1" vertex="1">
          <mxGeometry x="330" y="70" width="200" height="150" as="geometry" />
        </mxCell>
        <mxCell id="BfOnNY_YY4qrmuT2SfUB-1" style="edgeStyle=orthogonalEdgeStyle;rounded=0;orthogonalLoop=1;jettySize=auto;html=1;exitX=1;exitY=0.5;exitDx=0;exitDy=0;exitPerimeter=0;entryX=0;entryY=0.5;entryDx=0;entryDy=0;" edge="1" parent="1" source="SF89tTnGyxcnFl5orWCE-5" target="SF89tTnGyxcnFl5orWCE-6">
          <mxGeometry relative="1" as="geometry" />
        </mxCell>
        <mxCell id="SF89tTnGyxcnFl5orWCE-5" value="Start" style="fontSize=14;zwfType=basicShape;strokeWidth=2;html=1;shape=mxgraph.flowchart.terminator;whiteSpace=wrap;strokeColor=#52BD94;fontColor=#FFFFFF;fillColor=#52BD94;" parent="1" vertex="1">
          <mxGeometry y="275" width="70" height="40" as="geometry" />
        </mxCell>
        <mxCell id="BfOnNY_YY4qrmuT2SfUB-2" style="edgeStyle=orthogonalEdgeStyle;rounded=0;orthogonalLoop=1;jettySize=auto;html=1;exitX=1;exitY=0.5;exitDx=0;exitDy=0;entryX=0;entryY=0.5;entryDx=0;entryDy=0;" edge="1" parent="1" source="SF89tTnGyxcnFl5orWCE-6" target="SF89tTnGyxcnFl5orWCE-7">
          <mxGeometry relative="1" as="geometry" />
        </mxCell>
        <mxCell id="SF89tTnGyxcnFl5orWCE-6" value="Populate Master Queue" style="fontSize=14;zwfType=basicShape;rounded=0;strokeWidth=2;strokeColor=#474D66;whiteSpace=wrap;html=1;" parent="1" vertex="1">
          <mxGeometry x="100" y="270" width="110" height="50" as="geometry" />
        </mxCell>
        <mxCell id="BfOnNY_YY4qrmuT2SfUB-15" style="edgeStyle=orthogonalEdgeStyle;rounded=0;orthogonalLoop=1;jettySize=auto;html=1;exitX=1;exitY=0.5;exitDx=0;exitDy=0;entryX=0;entryY=0.5;entryDx=0;entryDy=0;" edge="1" parent="1" source="SF89tTnGyxcnFl5orWCE-7" target="BfOnNY_YY4qrmuT2SfUB-11">
          <mxGeometry relative="1" as="geometry" />
        </mxCell>
        <mxCell id="SF89tTnGyxcnFl5orWCE-7" value="Populate Sub Queue" style="fontSize=14;zwfType=basicShape;rounded=0;strokeWidth=2;strokeColor=#474D66;whiteSpace=wrap;html=1;" parent="1" vertex="1">
          <mxGeometry x="250" y="272" width="110" height="46" as="geometry" />
        </mxCell>
        <mxCell id="SF89tTnGyxcnFl5orWCE-8" value="&lt;br&gt;1)Read from PriorityList&lt;br&gt;2)Read From Email&lt;br&gt;Based on the argument&lt;br&gt;&lt;br&gt;Master Q Key - UserID_Month_Year" style="spacingLeft=10;spacingRight=10;shape=mxgraph.mockup.text.stickyNote2;zwfType=stickyShape;strokeWidth=0;strokeColor=#CAE33E;fillColor=#D8F636;whiteSpace=wrap;html=1;" parent="1" vertex="1">
          <mxGeometry x="80" y="331" width="150" height="149" as="geometry" />
        </mxCell>
        <mxCell id="SF89tTnGyxcnFl5orWCE-9" value="Read Associated accounts from db and populate &lt;b&gt;SubQ&lt;/b&gt;,&lt;br&gt;&amp;nbsp;&lt;br&gt;Sub Q Key -&lt;br&gt;UserID_Month_Year_Type_AccNo" style="spacingLeft=10;spacingRight=10;shape=mxgraph.mockup.text.stickyNote2;zwfType=stickyShape;strokeWidth=0;strokeColor=#CAE33E;fillColor=#D8F636;whiteSpace=wrap;html=1;" parent="1" vertex="1">
          <mxGeometry x="240" y="331" width="180" height="149" as="geometry" />
        </mxCell>
        <mxCell id="SF89tTnGyxcnFl5orWCE-19" value="" style="edgeStyle=orthogonalEdgeStyle;rounded=0;orthogonalLoop=1;jettySize=auto;html=1;" parent="1" source="SF89tTnGyxcnFl5orWCE-13" target="SF89tTnGyxcnFl5orWCE-15" edge="1">
          <mxGeometry relative="1" as="geometry" />
        </mxCell>
        <mxCell id="SF89tTnGyxcnFl5orWCE-13" value="Validate Queue Item" style="fontSize=14;zwfType=basicShape;rounded=0;strokeWidth=2;strokeColor=#474D66;whiteSpace=wrap;html=1;" parent="1" vertex="1">
          <mxGeometry x="585" y="272" width="115" height="46" as="geometry" />
        </mxCell>
        <mxCell id="SF89tTnGyxcnFl5orWCE-14" value="Read Item from &lt;b&gt;MasterQ&lt;/b&gt;, validate item, get Associated providers as &lt;b&gt;ProviderList&lt;/b&gt;" style="spacingLeft=10;spacingRight=10;shape=mxgraph.mockup.text.stickyNote2;zwfType=stickyShape;strokeWidth=0;strokeColor=#CAE33E;fillColor=#D8F636;whiteSpace=wrap;html=1;" parent="1" vertex="1">
          <mxGeometry x="580" y="335" width="150" height="130" as="geometry" />
        </mxCell>
        <mxCell id="SF89tTnGyxcnFl5orWCE-20" style="edgeStyle=orthogonalEdgeStyle;rounded=0;orthogonalLoop=1;jettySize=auto;html=1;exitX=0.5;exitY=0;exitDx=0;exitDy=0;entryX=0;entryY=0.5;entryDx=0;entryDy=0;" parent="1" source="SF89tTnGyxcnFl5orWCE-15" target="SF89tTnGyxcnFl5orWCE-16" edge="1">
          <mxGeometry relative="1" as="geometry" />
        </mxCell>
        <mxCell id="SF89tTnGyxcnFl5orWCE-22" value="MEDC" style="edgeLabel;html=1;align=center;verticalAlign=middle;resizable=0;points=[];" parent="SF89tTnGyxcnFl5orWCE-20" vertex="1" connectable="0">
          <mxGeometry x="0.1034" y="-3" relative="1" as="geometry">
            <mxPoint as="offset" />
          </mxGeometry>
        </mxCell>
        <mxCell id="SF89tTnGyxcnFl5orWCE-24" style="edgeStyle=orthogonalEdgeStyle;rounded=0;orthogonalLoop=1;jettySize=auto;html=1;exitX=1;exitY=0.5;exitDx=0;exitDy=0;entryX=0;entryY=0.5;entryDx=0;entryDy=0;" parent="1" source="SF89tTnGyxcnFl5orWCE-15" target="SF89tTnGyxcnFl5orWCE-23" edge="1">
          <mxGeometry relative="1" as="geometry" />
        </mxCell>
        <mxCell id="SF89tTnGyxcnFl5orWCE-15" value="What&#39;s Next&lt;br&gt;Choice?" style="zwfType=basicShape;rounded=0;strokeWidth=2;strokeColor=#474D66;whiteSpace=wrap;html=1;" parent="1" vertex="1">
          <mxGeometry x="750" y="265" width="120" height="60" as="geometry" />
        </mxCell>
        <mxCell id="SF89tTnGyxcnFl5orWCE-21" value="True" style="edgeStyle=orthogonalEdgeStyle;rounded=0;orthogonalLoop=1;jettySize=auto;html=1;exitX=0.5;exitY=0;exitDx=0;exitDy=0;entryX=0.5;entryY=1;entryDx=0;entryDy=0;" parent="1" source="SF89tTnGyxcnFl5orWCE-16" target="SF89tTnGyxcnFl5orWCE-17" edge="1">
          <mxGeometry relative="1" as="geometry" />
        </mxCell>
        <mxCell id="SF89tTnGyxcnFl5orWCE-25" value="False" style="edgeStyle=orthogonalEdgeStyle;rounded=0;orthogonalLoop=1;jettySize=auto;html=1;exitX=0.5;exitY=1;exitDx=0;exitDy=0;entryX=0.5;entryY=0;entryDx=0;entryDy=0;" parent="1" source="SF89tTnGyxcnFl5orWCE-16" target="SF89tTnGyxcnFl5orWCE-23" edge="1">
          <mxGeometry relative="1" as="geometry" />
        </mxCell>
        <mxCell id="SF89tTnGyxcnFl5orWCE-16" value="is MEDC in ProviderList?" style="fontSize=14;spacingLeft=10;spacingRight=10;zwfType=basicShape;strokeWidth=2;rhombus;whiteSpace=wrap;html=1;strokeColor=#474D66;" parent="1" vertex="1">
          <mxGeometry x="907" y="140" width="133" height="70" as="geometry" />
        </mxCell>
        <mxCell id="SF89tTnGyxcnFl5orWCE-17" value="Invoke MEDC bill download process with argument &lt;b&gt;MasterQ Key&lt;/b&gt;+&lt;b&gt;MEDC&lt;/b&gt;" style="fontSize=14;spacingLeft=10;spacingRight=10;zwfType=basicShape;rounded=0;strokeWidth=2;strokeColor=#474D66;whiteSpace=wrap;html=1;" parent="1" vertex="1">
          <mxGeometry x="888.5" y="30" width="161.5" height="80" as="geometry" />
        </mxCell>
        <mxCell id="SF89tTnGyxcnFl5orWCE-28" value="True" style="edgeStyle=orthogonalEdgeStyle;rounded=0;orthogonalLoop=1;jettySize=auto;html=1;exitX=1;exitY=0.5;exitDx=0;exitDy=0;entryX=0;entryY=0.5;entryDx=0;entryDy=0;" parent="1" source="SF89tTnGyxcnFl5orWCE-23" target="SF89tTnGyxcnFl5orWCE-26" edge="1">
          <mxGeometry relative="1" as="geometry" />
        </mxCell>
        <mxCell id="BfOnNY_YY4qrmuT2SfUB-5" style="edgeStyle=orthogonalEdgeStyle;rounded=0;orthogonalLoop=1;jettySize=auto;html=1;exitX=0.5;exitY=1;exitDx=0;exitDy=0;entryX=0;entryY=0.5;entryDx=0;entryDy=0;" edge="1" parent="1" source="SF89tTnGyxcnFl5orWCE-23" target="BfOnNY_YY4qrmuT2SfUB-4">
          <mxGeometry relative="1" as="geometry" />
        </mxCell>
        <mxCell id="SF89tTnGyxcnFl5orWCE-23" value="is OTC in ProviderList?" style="fontSize=14;spacingLeft=10;spacingRight=10;zwfType=basicShape;strokeWidth=2;rhombus;whiteSpace=wrap;html=1;strokeColor=#474D66;" parent="1" vertex="1">
          <mxGeometry x="907" y="260" width="133" height="70" as="geometry" />
        </mxCell>
        <mxCell id="BfOnNY_YY4qrmuT2SfUB-6" style="edgeStyle=orthogonalEdgeStyle;rounded=0;orthogonalLoop=1;jettySize=auto;html=1;exitX=0.5;exitY=1;exitDx=0;exitDy=0;entryX=1;entryY=0.5;entryDx=0;entryDy=0;" edge="1" parent="1" source="SF89tTnGyxcnFl5orWCE-26" target="BfOnNY_YY4qrmuT2SfUB-4">
          <mxGeometry relative="1" as="geometry" />
        </mxCell>
        <mxCell id="SF89tTnGyxcnFl5orWCE-26" value="Invoke MEDC bill download process with argument &lt;b&gt;MasterQ Key&lt;/b&gt;+&lt;b&gt;OTC&lt;/b&gt;" style="fontSize=14;spacingLeft=10;spacingRight=10;zwfType=basicShape;rounded=0;strokeWidth=2;strokeColor=#474D66;whiteSpace=wrap;html=1;" parent="1" vertex="1">
          <mxGeometry x="1080" y="255" width="161.5" height="80" as="geometry" />
        </mxCell>
        <mxCell id="BfOnNY_YY4qrmuT2SfUB-8" style="edgeStyle=orthogonalEdgeStyle;rounded=0;orthogonalLoop=1;jettySize=auto;html=1;exitX=0.5;exitY=1;exitDx=0;exitDy=0;entryX=0.5;entryY=0;entryDx=0;entryDy=0;" edge="1" parent="1" source="BfOnNY_YY4qrmuT2SfUB-4" target="BfOnNY_YY4qrmuT2SfUB-7">
          <mxGeometry relative="1" as="geometry" />
        </mxCell>
        <mxCell id="BfOnNY_YY4qrmuT2SfUB-4" value="Repeat the above for remaining Providers" style="rounded=0;whiteSpace=wrap;html=1;" vertex="1" parent="1">
          <mxGeometry x="1000" y="420" width="120" height="60" as="geometry" />
        </mxCell>
        <mxCell id="BfOnNY_YY4qrmuT2SfUB-10" value="True" style="edgeStyle=orthogonalEdgeStyle;rounded=0;orthogonalLoop=1;jettySize=auto;html=1;exitX=0;exitY=0.5;exitDx=0;exitDy=0;entryX=1;entryY=0.5;entryDx=0;entryDy=0;" edge="1" parent="1" source="BfOnNY_YY4qrmuT2SfUB-7" target="BfOnNY_YY4qrmuT2SfUB-9">
          <mxGeometry relative="1" as="geometry" />
        </mxCell>
        <mxCell id="BfOnNY_YY4qrmuT2SfUB-20" style="edgeStyle=orthogonalEdgeStyle;rounded=0;orthogonalLoop=1;jettySize=auto;html=1;exitX=0.5;exitY=1;exitDx=0;exitDy=0;" edge="1" parent="1" source="BfOnNY_YY4qrmuT2SfUB-7" target="BfOnNY_YY4qrmuT2SfUB-19">
          <mxGeometry relative="1" as="geometry" />
        </mxCell>
        <mxCell id="BfOnNY_YY4qrmuT2SfUB-22" value="False" style="edgeLabel;html=1;align=center;verticalAlign=middle;resizable=0;points=[];" vertex="1" connectable="0" parent="BfOnNY_YY4qrmuT2SfUB-20">
          <mxGeometry x="-0.1257" y="2" relative="1" as="geometry">
            <mxPoint as="offset" />
          </mxGeometry>
        </mxCell>
        <mxCell id="BfOnNY_YY4qrmuT2SfUB-7" value="No Pending Bills to Download?&lt;br&gt;(DB Check)" style="rhombus;whiteSpace=wrap;html=1;" vertex="1" parent="1">
          <mxGeometry x="1000" y="520" width="120" height="100" as="geometry" />
        </mxCell>
        <mxCell id="BfOnNY_YY4qrmuT2SfUB-17" style="edgeStyle=orthogonalEdgeStyle;rounded=0;orthogonalLoop=1;jettySize=auto;html=1;exitX=0;exitY=0.5;exitDx=0;exitDy=0;entryX=1;entryY=0.5;entryDx=0;entryDy=0;" edge="1" parent="1" source="BfOnNY_YY4qrmuT2SfUB-9" target="BfOnNY_YY4qrmuT2SfUB-16">
          <mxGeometry relative="1" as="geometry" />
        </mxCell>
        <mxCell id="BfOnNY_YY4qrmuT2SfUB-9" value="Update &lt;b&gt;DB&lt;/b&gt;&amp;nbsp;and&amp;nbsp;&lt;b&gt;MasterQ item&lt;/b&gt;" style="rounded=1;whiteSpace=wrap;html=1;" vertex="1" parent="1">
          <mxGeometry x="780" y="540" width="120" height="60" as="geometry" />
        </mxCell>
        <mxCell id="BfOnNY_YY4qrmuT2SfUB-14" style="edgeStyle=orthogonalEdgeStyle;rounded=0;orthogonalLoop=1;jettySize=auto;html=1;exitX=1;exitY=0.5;exitDx=0;exitDy=0;" edge="1" parent="1" source="BfOnNY_YY4qrmuT2SfUB-11" target="SF89tTnGyxcnFl5orWCE-13">
          <mxGeometry relative="1" as="geometry" />
        </mxCell>
        <mxCell id="BfOnNY_YY4qrmuT2SfUB-11" value="Get Next Item From &lt;b&gt;MasterQ&lt;/b&gt;" style="rounded=0;whiteSpace=wrap;html=1;" vertex="1" parent="1">
          <mxGeometry x="425" y="265" width="120" height="60" as="geometry" />
        </mxCell>
        <mxCell id="BfOnNY_YY4qrmuT2SfUB-18" style="edgeStyle=orthogonalEdgeStyle;rounded=0;orthogonalLoop=1;jettySize=auto;html=1;exitX=0;exitY=0.5;exitDx=0;exitDy=0;entryX=0.5;entryY=1;entryDx=0;entryDy=0;" edge="1" parent="1" source="BfOnNY_YY4qrmuT2SfUB-16" target="BfOnNY_YY4qrmuT2SfUB-11">
          <mxGeometry relative="1" as="geometry" />
        </mxCell>
        <mxCell id="BfOnNY_YY4qrmuT2SfUB-16" value="Remaining Steps like Consolidation" style="rounded=0;whiteSpace=wrap;html=1;" vertex="1" parent="1">
          <mxGeometry x="600" y="540" width="120" height="60" as="geometry" />
        </mxCell>
        <mxCell id="BfOnNY_YY4qrmuT2SfUB-21" style="edgeStyle=orthogonalEdgeStyle;rounded=0;orthogonalLoop=1;jettySize=auto;html=1;exitX=0;exitY=0.5;exitDx=0;exitDy=0;entryX=0.25;entryY=1;entryDx=0;entryDy=0;" edge="1" parent="1" source="BfOnNY_YY4qrmuT2SfUB-19" target="BfOnNY_YY4qrmuT2SfUB-11">
          <mxGeometry relative="1" as="geometry" />
        </mxCell>
        <mxCell id="BfOnNY_YY4qrmuT2SfUB-19" value="Mark item for retry later" style="rounded=1;whiteSpace=wrap;html=1;" vertex="1" parent="1">
          <mxGeometry x="787" y="620" width="120" height="60" as="geometry" />
        </mxCell>
      </root>
    </mxGraphModel>
  </diagram>
</mxfile>
